<?xml version="1.0" standalone="no"?>
<!DOCTYPE svg PUBLIC "-//W3C//DTD SVG 20010904//EN"
 "http://www.w3.org/TR/2001/REC-SVG-20010904/DTD/svg10.dtd">
<svg version="1.0" xmlns="http://www.w3.org/2000/svg"
 width="512.000000pt" height="512.000000pt" viewBox="0 0 512.000000 512.000000"
 preserveAspectRatio="xMidYMid meet">
<metadata>
Created by potrace 1.11, written by Peter Selinger 2001-2013
</metadata>
<g transform="translate(0.000000,512.000000) scale(0.100000,-0.100000)"
fill="#000000" stroke="none">
<path d="M2214 4894 c5 -14 4 -15 -9 -4 -12 10 -15 10 -15 0 0 -9 -4 -9 -17 1
-14 12 -16 12 -8 0 6 -11 4 -13 -9 -8 -9 4 -15 3 -12 -1 2 -4 -7 -12 -20 -19
-18 -8 -23 -8 -18 0 3 7 -1 4 -9 -5 -8 -10 -17 -15 -20 -11 -4 3 -7 1 -7 -5 0
-7 -9 -12 -21 -12 -11 0 -17 -4 -14 -10 6 -9 -8 -15 -29 -11 -5 1 -6 -5 -2
-14 3 -9 2 -13 -4 -10 -5 3 -31 -16 -56 -42 -26 -26 -51 -48 -56 -48 -4 0 -9
-4 -10 -10 -1 -5 -13 -20 -27 -32 -13 -13 -21 -23 -17 -23 4 0 1 -6 -6 -14 -7
-8 -16 -12 -20 -10 -4 3 -5 -5 -3 -16 2 -12 -1 -20 -10 -20 -7 0 -17 -9 -20
-20 -3 -11 -11 -20 -16 -20 -5 0 -9 -7 -9 -15 0 -8 -10 -19 -21 -26 -17 -9
-19 -13 -8 -20 11 -7 10 -9 -4 -9 -10 0 -16 -4 -12 -10 3 -5 -3 -18 -15 -30
-11 -11 -17 -20 -13 -20 4 0 -2 -7 -13 -16 -10 -8 -13 -12 -6 -9 11 6 11 3 1
-13 -7 -12 -16 -19 -20 -16 -4 2 -6 -7 -5 -20 2 -17 -1 -23 -10 -19 -9 3 -14
-2 -14 -16 0 -12 -5 -21 -11 -21 -6 0 -9 -7 -5 -15 3 -10 -1 -15 -12 -15 -15
0 -15 -2 -2 -10 13 -8 13 -10 -1 -10 -10 0 -16 -7 -15 -17 0 -11 -5 -17 -13
-15 -11 2 -12 0 -2 -11 9 -12 8 -16 -4 -20 -8 -4 -12 -13 -9 -21 3 -8 0 -17
-7 -22 -8 -5 -10 -3 -4 6 6 9 4 11 -4 6 -7 -5 -10 -11 -7 -14 4 -3 -1 -16 -10
-30 -9 -13 -11 -22 -6 -18 6 3 14 1 18 -5 4 -8 3 -9 -4 -5 -7 4 -12 2 -12 -4
0 -6 -5 -8 -12 -4 -7 5 -9 2 -5 -9 3 -9 1 -17 -4 -19 -5 -2 -11 -13 -12 -26 0
-12 -5 -22 -9 -22 -4 0 -5 -9 -3 -20 2 -11 -1 -20 -6 -20 -6 0 -7 -4 -4 -10 3
-5 0 -10 -7 -10 -9 0 -9 -3 2 -10 8 -5 10 -10 4 -10 -15 0 -16 -180 0 -180 7
0 6 -4 -2 -9 -16 -10 -14 -22 7 -39 15 -12 14 -13 -1 -8 -21 6 -34 -9 -17 -20
8 -5 9 -3 4 5 -6 10 -3 11 14 2 24 -13 28 -23 6 -15 -13 5 -13 3 0 -22 8 -16
15 -34 15 -41 0 -6 3 -13 8 -16 4 -2 1 -2 -6 0 -8 1 -21 3 -30 3 -13 0 -13 2
3 13 14 11 15 16 5 22 -9 5 -11 4 -6 -3 4 -7 2 -12 -3 -12 -6 0 -11 13 -11 29
0 16 -5 31 -11 33 -6 2 -11 20 -12 40 0 20 -4 35 -8 32 -4 -2 -10 6 -14 19 -4
12 -8 25 -10 30 -1 4 -3 14 -4 23 0 9 -6 12 -13 8 -6 -4 -9 -3 -5 2 3 5 -2 25
-10 44 -9 19 -15 38 -15 42 1 4 -7 12 -18 18 -11 6 -20 17 -20 25 0 8 -4 15
-10 15 -5 0 -9 3 -9 8 4 23 -3 42 -15 42 -8 0 -18 5 -22 12 -5 7 -2 8 7 3 8
-4 3 3 -11 16 -13 13 -28 23 -33 21 -5 -1 -6 2 -2 8 3 5 -2 10 -12 10 -14 0
-15 2 -4 9 11 7 9 10 -8 16 -11 3 -21 11 -21 16 0 14 -26 39 -34 32 -3 -3 -8
2 -12 11 -3 9 -10 13 -15 10 -5 -3 -20 6 -33 19 -18 18 -28 21 -35 14 -8 -8
-11 -6 -11 5 0 11 -7 16 -20 13 -11 -2 -20 1 -20 6 0 6 -4 7 -10 4 -5 -3 -10
-1 -10 6 0 8 -4 8 -15 -1 -12 -10 -16 -9 -21 4 -5 14 -9 14 -22 4 -13 -11 -14
-11 -7 2 6 12 5 13 -5 3 -9 -8 -19 -9 -31 -3 -11 6 -20 7 -24 1 -3 -6 -15 -8
-27 -6 -12 3 -27 -3 -35 -13 -14 -16 -14 -16 -9 3 5 18 5 18 -6 4 -7 -9 -19
-14 -25 -12 -7 3 -13 0 -13 -6 0 -6 -3 -10 -7 -9 -15 3 -66 -23 -80 -40 -8 -9
-12 -11 -8 -5 4 8 1 11 -9 7 -9 -3 -14 -9 -13 -12 1 -4 -2 -8 -7 -9 -5 0 -13
-8 -18 -17 -5 -9 -13 -14 -19 -11 -5 4 -9 0 -9 -8 0 -8 -8 -21 -17 -28 -16
-13 -17 -12 -4 4 22 28 8 20 -24 -15 -17 -18 -24 -28 -16 -23 10 5 12 4 7 -3
-4 -7 -14 -12 -23 -12 -9 0 -13 -6 -10 -14 4 -10 1 -13 -9 -9 -9 3 -14 -1 -14
-12 0 -11 -5 -15 -16 -11 -8 3 -12 2 -9 -4 6 -10 -15 -50 -28 -50 -4 0 -5 5
-1 12 4 7 3 8 -4 4 -6 -4 -9 -13 -6 -21 4 -8 -1 -18 -10 -21 -9 -3 -13 -10
-10 -15 3 -5 0 -9 -6 -9 -6 0 -9 -4 -6 -9 3 -5 -1 -12 -10 -15 -9 -4 -14 -13
-10 -22 3 -9 2 -12 -5 -9 -6 4 -13 -2 -16 -14 -3 -12 -10 -21 -15 -21 -6 0 -8
-7 -4 -15 3 -8 0 -14 -7 -12 -7 1 -11 -4 -9 -10 1 -7 -3 -13 -9 -13 -6 0 -8
-7 -5 -16 3 -8 2 -12 -4 -9 -6 3 -10 -1 -10 -10 0 -9 -4 -14 -9 -10 -5 3 -13
0 -17 -6 -4 -8 -3 -9 4 -5 7 4 12 2 12 -3 0 -6 -4 -11 -10 -11 -5 0 -10 -7
-10 -16 0 -8 -4 -12 -10 -9 -5 3 -10 2 -10 -4 0 -5 6 -12 13 -14 9 -4 9 -6 -1
-6 -7 -1 -10 -5 -7 -11 4 -6 -1 -7 -11 -3 -12 4 -15 3 -10 -5 4 -7 3 -12 -3
-12 -6 0 -7 -7 -4 -17 4 -10 2 -14 -4 -10 -6 4 -14 0 -17 -9 -3 -8 -2 -12 4
-9 6 3 10 2 10 -2 0 -5 -9 -14 -20 -21 -11 -7 -20 -21 -20 -31 0 -11 -5 -23
-10 -26 -6 -4 -8 -10 -5 -15 3 -4 -2 -11 -11 -14 -9 -4 -14 -13 -10 -21 3 -8
1 -15 -4 -15 -6 0 -10 -3 -9 -7 2 -17 -14 -52 -22 -48 -4 3 -6 -4 -4 -15 2
-11 0 -20 -5 -20 -5 0 -7 -9 -5 -19 2 -11 -2 -22 -9 -24 -16 -6 -19 -186 -3
-206 7 -9 8 -12 1 -8 -7 4 -10 -7 -10 -32 1 -26 5 -37 14 -34 6 3 12 0 12 -6
0 -6 -5 -11 -12 -11 -9 0 -9 -3 0 -12 7 -7 12 -19 12 -27 0 -8 8 -24 17 -35
17 -20 17 -20 0 -7 -15 12 -17 12 -11 -3 3 -9 10 -16 16 -16 5 0 7 -4 4 -9 -9
-14 5 -42 18 -34 6 3 8 3 4 -2 -4 -4 -2 -15 5 -23 10 -13 9 -14 -1 -8 -11 7
-11 4 0 -15 7 -13 20 -30 28 -37 13 -12 13 -13 0 -6 -8 4 -5 -3 8 -16 13 -12
21 -28 18 -35 -2 -7 6 -17 20 -23 13 -6 26 -23 30 -37 3 -13 10 -22 15 -19 5
3 9 -2 9 -11 0 -9 5 -13 10 -10 6 3 10 -1 10 -9 0 -8 9 -18 20 -21 11 -4 19
-9 17 -13 -5 -10 30 -42 37 -35 3 4 6 -2 6 -12 0 -10 3 -15 6 -12 4 4 15 -2
25 -14 12 -14 18 -16 22 -7 3 8 6 5 6 -6 1 -11 4 -16 8 -13 3 4 12 -1 20 -11
8 -9 12 -11 8 -5 -4 9 -1 11 9 7 9 -3 13 -10 10 -15 -3 -5 4 -9 16 -9 14 0 19
-4 14 -12 -5 -9 -2 -9 9 1 13 10 17 10 17 1 0 -7 7 -10 16 -6 8 3 12 2 9 -3
-3 -5 -1 -12 5 -16 5 -3 10 0 10 7 0 10 2 10 9 -1 6 -9 11 -10 15 -2 5 7 12 7
26 -1 10 -7 17 -16 14 -20 -3 -4 2 -5 10 -2 9 3 13 11 10 18 -3 6 0 4 8 -4 7
-8 20 -14 28 -14 8 1 23 2 33 3 12 1 16 6 11 14 -4 6 3 3 15 -7 22 -20 22 -20
15 0 -7 17 -6 18 11 4 10 -8 16 -10 12 -3 -4 6 -3 14 3 18 5 3 10 1 10 -5 0
-7 10 -6 28 3 15 8 33 12 41 9 10 -3 12 0 8 11 -5 13 -1 14 24 7 19 -6 29 -5
29 2 0 6 3 9 6 5 4 -3 13 1 21 9 8 8 19 12 24 9 4 -3 20 2 34 11 24 16 25 16
19 -2 -6 -17 -5 -17 7 -4 20 23 54 47 46 33 -5 -7 0 -9 13 -6 11 3 20 10 20
15 0 5 5 6 10 3 6 -3 10 -1 10 5 0 6 4 9 9 6 5 -3 12 2 15 11 6 15 8 15 16 3
9 -13 10 -13 11 0 1 8 1 20 -1 25 -1 6 4 5 10 -2 10 -9 18 -6 37 10 13 12 33
30 44 40 11 10 17 22 14 27 -4 6 2 7 12 3 10 -3 15 -3 11 2 -4 4 4 18 18 30
14 12 26 29 28 38 1 10 11 24 22 33 10 8 12 13 4 9 -12 -5 -12 -4 1 7 9 7 14
19 12 26 -3 6 1 12 7 12 10 0 9 4 0 15 -11 13 -10 14 6 9 10 -4 16 -4 12 1 -4
4 -2 15 5 23 10 13 9 14 -3 8 -8 -4 -4 1 9 12 15 12 20 22 13 26 -8 5 -5 18 9
42 11 20 15 33 9 29 -5 -3 -10 -2 -10 3 0 6 8 13 17 16 15 6 15 8 3 16 -10 6
-11 10 -3 10 7 0 10 7 7 15 -4 8 -1 15 6 15 10 0 10 3 1 14 -10 11 -9 16 4 23
9 6 14 18 11 34 -2 13 4 32 12 42 15 16 14 17 -1 11 -10 -3 -17 -1 -17 5 0 10
13 15 35 12 6 -1 3 4 -5 11 -15 13 -16 53 -1 44 4 -3 8 1 8 9 0 8 -5 15 -10
15 -5 0 -3 8 4 17 12 14 12 16 0 8 -11 -6 -12 -5 -5 6 12 20 15 87 3 94 -5 4
-5 14 1 26 8 14 7 19 -2 19 -9 0 -9 3 2 10 13 8 8 14 -10 12 -3 0 -4 15 -2 34
3 24 0 34 -9 34 -11 0 -11 2 1 10 10 6 11 10 3 10 -7 0 -13 5 -13 11 0 5 6 7
13 3 6 -4 4 2 -6 14 -18 20 -18 20 0 17 10 -2 21 -4 26 -4 4 -1 7 -10 7 -21 0
-11 5 -20 11 -20 8 0 7 -6 -2 -17 -10 -11 -10 -14 -1 -9 11 6 17 -5 13 -26 0
-5 4 -8 9 -8 6 0 10 -8 10 -18 0 -10 9 -24 20 -32 11 -8 20 -23 20 -33 0 -10
5 -15 10 -12 6 3 10 -3 10 -14 0 -19 11 -26 34 -22 5 1 4 -4 -2 -12 -10 -11
-9 -17 5 -28 16 -12 17 -12 8 1 -5 9 -2 7 7 -3 10 -11 15 -24 11 -30 -3 -5 -2
-7 4 -4 5 3 17 -5 27 -18 10 -14 22 -22 27 -20 4 3 10 -4 14 -15 3 -11 11 -20
16 -20 5 0 18 -9 29 -20 12 -12 20 -15 21 -7 0 6 4 4 8 -6 4 -10 9 -17 11 -15
3 1 16 -5 30 -15 29 -20 44 -22 35 -4 -4 6 2 1 13 -12 11 -13 24 -21 31 -17 6
4 11 3 11 -2 0 -6 7 -13 16 -16 15 -6 15 -4 3 10 -13 16 -12 16 7 6 12 -6 24
-8 28 -5 3 3 6 1 6 -6 0 -7 5 -9 10 -6 6 3 10 0 10 -7 0 -9 3 -9 10 2 5 8 10
10 10 5 0 -6 23 -11 55 -10 38 0 55 4 55 13 0 7 5 10 10 7 6 -4 8 -12 4 -18
-3 -7 0 -5 8 4 7 9 23 15 36 14 13 -1 25 2 28 6 2 4 14 6 25 4 16 -3 19 0 14
13 -3 9 -3 13 1 9 4 -4 14 -1 22 6 13 9 14 9 8 0 -10 -18 4 -16 25 3 13 12 19
12 25 3 5 -8 3 -10 -6 -4 -9 6 -11 4 -6 -4 9 -14 21 -6 21 12 0 7 15 12 37 12
31 -1 35 2 25 15 -6 8 -7 12 -3 8 5 -4 16 -2 24 5 13 9 14 9 8 0 -4 -7 -2 -13
3 -13 6 0 11 4 11 10 0 5 7 7 15 4 8 -4 17 1 21 9 3 9 14 14 25 12 11 -2 17 0
14 6 -4 5 3 9 15 9 14 0 19 4 14 12 -5 7 -2 9 9 5 9 -3 18 1 21 10 4 9 9 14
12 11 2 -3 26 16 52 42 67 67 99 104 82 96 -8 -4 -6 1 5 11 11 10 26 32 34 48
7 17 17 38 22 47 5 10 9 27 9 38 0 12 4 19 9 15 6 -3 8 4 6 15 -2 11 1 20 6
20 6 0 8 4 5 9 -3 5 1 14 9 21 11 9 12 17 4 32 -7 12 -7 18 -1 14 5 -3 13 1
16 10 4 10 2 13 -7 8 -9 -5 -9 -4 0 6 6 7 9 19 6 26 -3 9 1 14 12 14 9 0 13 5
10 10 -4 6 -11 8 -16 5 -16 -11 -10 7 9 22 10 8 11 11 2 7 -12 -7 -13 -5 -3 8
7 8 10 18 6 21 -3 4 -2 7 4 7 6 0 8 11 5 25 -2 14 1 32 8 40 7 9 10 18 6 22
-3 3 -6 0 -6 -7 0 -7 -3 -10 -6 -7 -4 4 -1 14 7 23 7 9 12 32 10 51 -2 27 0
33 11 27 11 -6 11 -5 0 9 -15 18 -23 79 -10 71 4 -3 8 0 8 5 0 6 -4 11 -8 11
-5 0 -7 14 -4 30 3 21 0 30 -9 30 -11 0 -11 2 1 10 13 9 13 10 0 10 -13 0 -13
1 0 10 10 6 11 10 3 10 -7 0 -13 12 -13 28 0 15 -6 34 -12 41 -11 12 -9 13 7
7 17 -5 16 -3 -5 15 -14 11 -19 18 -12 14 6 -3 12 -1 12 4 0 6 -4 11 -10 11
-5 0 -6 7 -3 17 5 12 3 14 -8 8 -12 -8 -12 -6 0 8 11 14 11 18 -3 23 -13 5
-14 9 -5 20 10 12 8 13 -7 7 -17 -6 -17 -5 -5 10 11 14 11 18 -3 23 -9 3 -13
10 -10 15 3 5 1 9 -5 9 -5 0 -8 9 -6 20 2 11 -1 22 -6 25 -5 4 -6 11 -3 17 4
7 2 8 -4 4 -7 -4 -12 -4 -13 1 -3 32 -10 49 -25 60 -10 8 -13 13 -6 13 10 0
10 3 0 14 -7 8 -17 11 -23 8 -5 -3 -3 3 5 13 9 11 10 16 3 11 -9 -5 -13 -1
-13 11 0 10 -9 24 -20 31 -12 7 -19 16 -17 20 6 11 -30 41 -39 34 -5 -4 -2 2
6 12 8 11 11 17 5 14 -12 -7 -37 17 -28 26 4 3 -1 6 -9 6 -9 0 -22 8 -29 18
-13 15 -12 16 4 3 28 -22 20 -8 -15 24 -18 17 -28 23 -24 15 5 -8 -1 -5 -13 8
-12 12 -26 22 -31 22 -6 0 -10 8 -11 18 0 9 -3 12 -6 5 -3 -10 -7 -10 -18 0
-7 7 -11 16 -8 20 3 5 -4 4 -16 -2 -18 -10 -22 -9 -30 11 -4 13 -11 22 -15 21
-3 -2 -23 -3 -43 -2 -31 0 -34 2 -18 9 18 8 17 9 -8 9 -20 1 -26 -3 -21 -11 6
-10 4 -10 -7 0 -7 6 -26 12 -41 12 -16 0 -28 -6 -28 -12 0 -8 -3 -9 -8 -3 -13
18 -35 17 -28 -1z m-2186 -1699 c-3 -3 -9 2 -12 12 -6 14 -5 15 5 6 7 -7 10
-15 7 -18z"/>
<path d="M3654 4539 c-5 -8 -3 -9 6 -4 9 5 11 4 6 -3 -5 -9 -13 -9 -29 0 -19
10 -20 9 -9 -4 11 -14 9 -16 -19 -14 -19 1 -33 -3 -36 -11 -3 -8 -12 -12 -19
-9 -8 3 -14 1 -14 -5 0 -6 -4 -7 -10 -4 -5 3 -10 1 -10 -5 0 -6 -4 -8 -10 -5
-5 3 -10 -2 -10 -12 0 -15 -2 -16 -10 -3 -7 11 -10 11 -10 2 0 -7 -4 -10 -10
-7 -6 3 -7 -1 -4 -9 4 -11 0 -16 -10 -16 -9 0 -30 -13 -45 -29 -16 -16 -32
-27 -37 -23 -4 4 -4 -1 -1 -11 4 -10 3 -16 -2 -12 -5 3 -19 -8 -31 -25 -12
-17 -26 -27 -32 -24 -7 4 -8 2 -4 -4 4 -7 2 -12 -4 -12 -6 0 -8 -4 -5 -10 3
-5 -1 -10 -10 -10 -9 0 -14 -4 -11 -8 3 -5 -4 -14 -14 -22 -10 -8 -17 -17 -14
-22 3 -4 1 -8 -5 -8 -5 0 -13 -9 -16 -20 -4 -11 -11 -17 -17 -14 -8 5 -9 1 -5
-10 5 -13 3 -17 -7 -13 -9 4 -13 1 -10 -6 2 -7 -5 -22 -16 -34 -11 -12 -20
-27 -20 -33 0 -5 -9 -19 -20 -30 -11 -11 -18 -20 -15 -20 3 0 1 -9 -5 -20 -6
-11 -15 -18 -20 -15 -6 3 -7 0 -5 -8 3 -7 -3 -24 -15 -37 -23 -26 -26 -36 -7
-24 7 5 5 1 -5 -8 -11 -9 -19 -21 -19 -25 -1 -4 -5 -7 -11 -5 -5 1 -7 -2 -3
-8 4 -6 1 -17 -5 -25 -6 -8 -9 -19 -6 -24 4 -5 -2 -16 -12 -23 -10 -7 -22 -20
-27 -28 -8 -13 -7 -13 11 0 18 14 18 14 4 -5 -9 -11 -22 -32 -30 -47 -7 -16
-18 -28 -24 -28 -6 0 -4 -5 4 -10 10 -6 11 -10 3 -10 -7 0 -13 -7 -13 -15 0
-8 -4 -15 -10 -15 -5 0 -6 -7 -3 -17 4 -11 3 -14 -5 -9 -8 5 -11 0 -9 -16 1
-15 -3 -22 -12 -20 -12 3 -12 0 -1 -12 9 -11 9 -16 1 -16 -9 0 -9 -5 0 -21 7
-13 7 -19 1 -15 -6 3 -13 2 -17 -4 -3 -5 -1 -10 4 -10 6 0 11 -5 11 -11 0 -5
-6 -7 -12 -3 -8 5 -7 0 2 -11 9 -11 10 -16 3 -11 -7 4 -13 3 -13 -3 0 -5 6
-12 13 -14 10 -4 10 -6 0 -6 -7 -1 -13 -6 -13 -12 0 -5 4 -8 8 -5 5 3 9 -2 9
-10 0 -8 -6 -13 -13 -10 -8 3 -11 0 -7 -9 3 -8 9 -13 13 -10 10 6 8 -15 -3
-32 -5 -8 -3 -13 4 -13 8 0 7 -5 -2 -17 -12 -14 -12 -16 0 -8 11 6 13 3 9 -13
-4 -12 -2 -22 2 -22 4 0 6 -10 2 -22 -3 -12 -1 -19 5 -15 5 3 10 0 10 -8 0 -8
-3 -12 -7 -10 -4 2 -7 -2 -7 -10 0 -8 5 -13 11 -12 5 1 10 -2 11 -8 0 -5 4
-16 9 -24 6 -10 6 -12 -3 -6 -9 5 -9 1 1 -14 7 -12 15 -21 18 -21 3 0 6 -12 6
-26 1 -14 9 -33 17 -42 8 -9 12 -23 9 -31 -3 -8 0 -11 7 -7 6 4 11 2 11 -5 0
-6 8 -18 18 -26 9 -8 12 -12 6 -9 -6 3 -11 -1 -11 -8 0 -9 7 -12 15 -8 11 4
14 1 9 -11 -4 -11 -1 -17 8 -17 14 0 19 -12 16 -32 0 -5 8 -8 20 -8 11 0 18
-4 15 -9 -7 -11 29 -53 38 -44 3 3 6 -1 6 -11 0 -9 5 -14 10 -11 6 3 10 -1 10
-9 0 -9 7 -16 16 -16 8 0 12 -4 9 -10 -3 -5 1 -10 9 -10 9 0 16 -5 16 -11 0
-5 5 -7 10 -4 6 3 10 -1 10 -9 0 -10 6 -13 15 -10 9 4 15 0 15 -10 0 -10 9
-16 24 -16 14 0 28 -5 32 -12 5 -7 3 -8 -6 -3 -8 5 -11 4 -6 -3 4 -6 14 -8 23
-5 12 5 14 3 8 -7 -5 -9 -4 -11 4 -6 6 4 19 2 28 -6 14 -11 16 -11 8 2 -6 11
-3 10 12 -2 23 -21 38 -24 27 -5 -6 9 -4 9 7 1 8 -6 27 -11 43 -12 16 -1 35
-7 42 -12 8 -8 13 -7 17 2 3 10 7 10 17 1 14 -13 43 -6 34 8 -3 5 2 6 10 3 9
-3 13 -10 10 -15 -3 -5 2 -6 10 -3 9 3 13 10 10 15 -3 5 2 6 11 3 8 -4 27 2
41 11 15 9 23 12 20 6 -4 -6 -3 -11 2 -11 6 0 12 7 16 15 3 8 12 12 21 9 9 -4
15 -1 15 7 0 11 3 11 10 -1 8 -12 10 -12 10 -1 0 8 3 11 7 8 3 -4 12 -2 20 4
7 7 23 13 36 14 37 4 38 5 31 18 -5 8 -2 8 9 -2 13 -10 17 -10 17 -1 0 7 7 10
15 6 8 -3 15 -1 15 4 0 5 9 7 21 5 17 -3 19 -1 9 10 -9 11 -6 13 14 11 15 -2
26 1 26 5 0 5 6 8 13 7 6 -2 11 3 9 10 -1 8 6 11 22 8 19 -3 23 -1 19 11 -4
10 -2 14 5 9 6 -3 13 -2 17 4 4 6 11 8 16 4 5 -3 9 -2 8 3 -4 23 2 32 18 26
12 -5 15 -2 10 10 -3 9 -3 16 1 16 20 -3 32 2 30 14 -2 6 3 11 10 9 8 -1 11 2
7 8 -3 5 1 13 9 16 9 3 13 10 10 15 -3 5 2 12 10 15 9 3 14 10 11 14 -3 4 2
10 10 14 9 3 12 12 8 22 -4 12 -3 15 6 10 8 -5 10 0 7 18 -3 15 0 25 6 23 6
-1 15 13 20 31 5 17 14 32 21 32 8 0 7 4 -3 10 -9 6 -11 10 -3 10 7 0 10 7 7
15 -4 8 -2 15 4 15 6 0 9 11 7 25 -2 22 0 23 13 13 9 -7 13 -8 9 -2 -14 24
-16 65 -2 70 8 3 11 12 8 20 -3 8 -1 14 5 14 5 0 8 14 6 31 -3 22 0 28 9 23 9
-6 8 -3 -1 8 -10 13 -10 18 -1 24 8 5 9 3 4 -6 -5 -9 -4 -11 4 -6 6 4 8 13 4
19 -12 19 -12 38 -1 31 6 -4 8 1 3 15 -4 14 -2 21 7 21 10 0 9 3 -2 10 -9 6
-11 10 -3 10 7 0 10 7 6 17 -5 12 -3 14 8 8 11 -6 12 -5 2 6 -7 7 -13 19 -13
27 0 8 5 10 13 6 8 -5 8 -2 -2 9 -7 9 -10 17 -7 17 4 0 1 10 -5 23 -11 19 -10
20 2 10 12 -10 15 -8 15 7 0 10 -3 17 -7 15 -3 -2 -7 17 -8 43 -2 26 -3 53 -4
60 0 6 -5 12 -11 12 -6 0 -5 5 2 12 7 7 12 17 12 23 0 5 -5 3 -10 -5 -8 -13
-10 -12 -11 5 -3 35 -4 40 -13 54 -6 9 -5 12 1 8 5 -3 10 0 10 8 0 8 -5 11
-10 8 -6 -4 -8 2 -5 15 4 12 1 25 -4 29 -7 4 -8 1 -3 -7 5 -8 4 -11 -2 -7 -5
3 -9 16 -8 29 1 13 -5 29 -14 36 -14 12 -14 13 2 8 17 -5 16 -4 -2 20 -11 15
-18 30 -15 35 3 5 0 9 -6 9 -6 0 -9 4 -5 9 3 5 -2 17 -11 25 -10 11 -11 16 -3
16 7 0 2 9 -11 20 -13 11 -19 20 -15 20 5 0 0 7 -11 16 -10 8 -12 12 -4 8 8
-5 5 4 -8 20 -12 16 -22 37 -22 48 0 11 -4 17 -8 14 -4 -2 -14 5 -22 17 -11
19 -11 21 1 12 8 -5 6 -2 -4 8 -11 9 -16 17 -12 17 4 0 -7 13 -24 29 -16 15
-28 31 -25 33 3 3 -7 8 -21 12 -16 4 -25 13 -25 26 0 11 -4 20 -10 20 -5 0
-18 10 -29 21 -11 12 -26 19 -35 16 -11 -4 -13 -1 -9 11 3 9 3 14 -2 10 -4 -4
-14 0 -22 10 -10 11 -12 12 -8 2 4 -10 2 -9 -8 2 -8 10 -17 15 -20 11 -4 -3
-17 2 -29 13 -12 10 -18 13 -14 7 12 -22 -8 -14 -22 7 -8 13 -18 18 -25 13
-16 -10 -48 -10 -69 0 -10 4 -18 4 -18 -2 0 -10 -19 -9 -37 2 -6 4 -15 2 -19
-4z"/>
<path d="M2669 3253 c-13 -16 -12 -17 4 -4 16 13 21 21 13 21 -2 0 -10 -8 -17
-17z"/>
<path d="M4483 3032 c4 -5 -11 -8 -36 -7 -50 2 -69 -3 -60 -18 4 -6 1 -7 -7
-2 -7 4 -16 2 -21 -6 -7 -11 -9 -11 -9 -1 0 7 -5 10 -10 7 -6 -4 -7 -12 -4
-18 5 -8 2 -8 -7 1 -11 10 -16 8 -26 -10 -7 -13 -12 -17 -13 -10 0 6 -4 12
-10 12 -5 0 -9 -3 -7 -7 1 -5 -2 -10 -8 -12 -10 -5 -25 -16 -50 -39 -8 -7 -15
-10 -15 -5 -1 4 -7 -3 -15 -17 -8 -14 -14 -21 -15 -16 0 5 -11 -3 -25 -18 -15
-17 -30 -24 -38 -20 -8 5 -8 2 2 -9 12 -15 11 -17 -8 -17 -11 0 -21 -5 -21
-11 0 -5 6 -7 13 -3 9 5 9 3 -1 -7 -7 -8 -18 -14 -25 -14 -7 0 -12 -7 -12 -15
0 -8 -8 -14 -18 -14 -9 1 -14 -2 -11 -7 6 -10 -9 -41 -19 -40 -18 2 -18 0 -6
-16 12 -15 12 -16 -3 -10 -13 5 -19 0 -24 -19 -3 -13 -15 -29 -25 -35 -11 -5
-17 -14 -14 -20 4 -5 1 -9 -4 -9 -6 0 -10 -6 -9 -12 2 -7 -2 -12 -8 -11 -5 1
-16 -8 -24 -20 -12 -20 -12 -21 4 -8 14 12 16 12 10 -3 -3 -9 -10 -16 -15 -16
-5 0 -9 -7 -9 -16 0 -8 -5 -12 -10 -9 -6 4 -13 -8 -17 -25 -3 -18 -12 -34 -19
-37 -8 -3 -11 -9 -8 -14 7 -11 -20 -51 -29 -43 -4 4 -4 -3 -2 -15 2 -12 0 -19
-6 -16 -8 6 -13 -8 -10 -27 0 -5 -4 -8 -10 -8 -5 0 -7 -5 -4 -10 3 -6 0 -13
-9 -16 -8 -3 -12 -12 -10 -19 3 -7 -4 -19 -16 -25 -15 -8 -18 -15 -11 -24 12
-14 -20 -71 -34 -59 -4 5 -5 2 -1 -5 4 -7 2 -20 -5 -28 -6 -8 -9 -17 -6 -21 4
-3 -1 -12 -11 -20 -11 -9 -11 -12 -2 -7 12 6 13 4 3 -7 -7 -7 -13 -17 -13 -22
0 -4 6 -5 13 -2 6 4 5 0 -5 -7 -12 -11 -14 -18 -6 -32 6 -10 7 -16 2 -13 -5 3
-14 -5 -20 -18 -10 -20 -9 -22 10 -18 16 4 18 2 7 -5 -16 -12 -22 -60 -8 -69
5 -3 3 -9 -4 -14 -12 -7 -12 -9 0 -9 11 0 11 -3 0 -17 -12 -14 -12 -16 0 -9 9
6 12 5 9 -5 -3 -8 -11 -13 -17 -11 -7 1 -10 -2 -6 -8 3 -6 11 -8 16 -5 9 6 13
-15 10 -44 -2 -8 2 -10 11 -5 10 6 10 4 -1 -9 -7 -10 -9 -17 -3 -17 6 0 9 -11
7 -25 -1 -17 3 -25 14 -26 11 0 12 -2 3 -6 -10 -4 -9 -8 5 -19 12 -9 13 -13 5
-14 -7 0 -10 -5 -7 -10 4 -6 10 -8 14 -5 5 2 7 -7 5 -20 -1 -14 2 -25 8 -25 6
0 7 -7 4 -16 -3 -8 -2 -12 4 -9 6 3 10 1 10 -5 0 -6 5 -8 13 -4 8 5 8 2 -2 -9
-9 -12 -10 -17 -2 -17 7 0 9 -5 6 -10 -3 -5 2 -10 12 -10 13 0 15 -2 5 -9 -10
-6 -5 -14 17 -32 17 -13 31 -30 31 -37 0 -8 13 -26 28 -40 16 -15 31 -35 35
-44 3 -10 13 -18 21 -18 8 0 18 -5 22 -12 5 -7 2 -9 -7 -4 -8 4 -5 1 6 -8 11
-8 26 -20 32 -26 7 -6 16 -11 20 -12 5 0 13 -8 20 -17 7 -9 13 -12 13 -7 0 5
9 -1 20 -14 11 -13 20 -20 20 -16 0 8 58 -21 85 -43 19 -15 19 -15 5 4 -15 19
-14 19 11 3 20 -13 29 -14 38 -5 7 7 12 8 11 2 -5 -22 1 -29 10 -15 6 10 10
11 10 3 0 -7 12 -13 26 -13 16 0 23 4 18 11 -3 6 4 4 18 -5 22 -14 26 -14 48
1 13 9 20 11 16 5 -10 -16 6 -15 23 0 11 11 12 10 6 -2 -7 -12 -6 -13 6 -4 8
6 24 10 36 9 13 -1 19 3 16 8 -4 6 0 8 10 4 9 -3 18 1 22 11 5 14 7 14 15 2 7
-11 10 -12 10 -2 0 7 4 10 10 7 13 -8 52 19 42 31 -4 4 1 2 11 -5 14 -11 17
-11 17 0 0 10 3 10 12 1 8 -8 18 -6 38 8 15 11 30 17 34 13 3 -3 6 -2 6 4 0 6
8 10 18 9 9 0 16 5 14 12 -2 10 2 10 17 2 16 -8 23 -6 34 10 7 11 17 17 21 12
4 -4 14 2 22 12 8 11 14 16 14 11 0 -5 7 0 16 11 8 10 13 12 9 4 -4 -8 3 -4
14 9 12 13 21 19 21 15 0 -5 9 5 20 23 10 17 29 37 40 43 12 6 19 14 16 17 -3
3 5 16 19 28 13 13 21 26 18 29 -4 3 -1 6 5 6 6 0 9 6 6 14 -3 7 2 16 10 19 9
4 16 11 16 17 0 6 -6 8 -12 5 -7 -4 -5 0 5 8 10 8 19 28 21 43 2 15 8 30 15
32 6 2 9 8 5 13 -3 5 1 9 8 9 9 0 9 3 -2 10 -11 7 -11 10 -2 10 7 0 10 5 7 10
-3 6 -1 10 4 10 6 0 11 5 11 11 0 5 -6 7 -12 3 -7 -4 -5 2 5 13 14 16 15 22 5
26 -8 3 -5 6 7 6 17 1 17 3 5 11 -12 8 -12 10 -1 10 10 0 11 3 2 14 -8 10 -9
16 -1 21 6 3 8 11 5 16 -4 5 1 12 10 15 13 6 14 8 3 15 -8 6 -9 9 -2 9 7 0 15
7 18 16 3 8 2 13 -3 10 -11 -7 -6 63 5 73 4 3 4 -3 0 -14 -5 -15 -4 -17 4 -9
9 9 9 17 0 34 -9 17 -9 21 0 15 9 -5 11 27 9 130 -2 75 -7 139 -13 142 -5 3
-6 1 -2 -5 4 -7 2 -12 -3 -12 -14 0 -14 6 -1 31 7 13 7 19 0 19 -5 0 -10 11
-10 25 0 14 -4 25 -10 25 -5 0 -10 5 -10 11 0 5 6 7 13 3 10 -6 10 -4 0 7 -7
7 -13 23 -13 35 0 12 -7 24 -15 28 -8 3 -12 12 -9 21 4 8 0 23 -7 32 -12 14
-12 16 1 8 12 -7 12 -5 -1 11 -9 10 -14 25 -11 33 3 9 0 11 -8 6 -10 -6 -12
-4 -7 8 3 10 2 17 -4 17 -6 0 -7 5 -4 10 3 6 1 10 -5 10 -6 0 -8 5 -5 10 3 6
2 10 -3 10 -6 0 -8 10 -5 23 4 18 3 19 -7 7 -10 -13 -11 -11 -7 7 3 16 1 20
-10 16 -7 -3 -13 -2 -12 3 4 21 -2 35 -11 29 -6 -3 -7 1 -4 9 4 11 0 16 -12
17 -18 0 -17 1 1 9 17 7 17 9 3 9 -10 1 -18 7 -18 14 0 7 -9 18 -21 25 -14 9
-19 20 -16 33 3 10 1 16 -4 13 -11 -6 -39 19 -39 35 0 6 -5 11 -11 11 -5 0 -7
4 -4 10 4 6 -1 7 -11 3 -13 -5 -16 -3 -11 10 4 10 2 16 -6 14 -7 -1 -11 4 -9
12 3 12 1 12 -13 1 -14 -11 -16 -11 -13 0 2 8 -7 19 -20 25 -12 5 -20 15 -18
22 3 7 -1 10 -8 7 -7 -3 -30 5 -50 16 -26 16 -36 18 -37 8 0 -7 -5 -2 -10 11
-8 19 -12 21 -24 11 -10 -8 -15 -9 -15 -2 0 6 -12 10 -27 8 -16 -1 -36 2 -47
7 -11 6 -16 5 -13 -1z"/>
<path d="M2196 2982 c-4 -6 -14 -8 -23 -5 -12 5 -14 3 -8 -8 7 -12 6 -12 -7
-1 -13 10 -17 10 -21 0 -3 -7 -6 -8 -6 -2 -1 14 -62 9 -71 -6 -5 -8 -9 -6 -14
7 -7 17 -8 17 -17 0 -6 -9 -15 -15 -20 -12 -5 4 -6 12 -2 18 3 7 -3 4 -14 -6
-16 -14 -22 -15 -26 -5 -3 8 -6 5 -6 -6 -1 -16 -4 -17 -13 -8 -9 9 -16 8 -32
-6 -11 -9 -16 -12 -13 -5 5 8 0 11 -12 10 -11 0 -17 -5 -14 -11 4 -5 -1 -7
-10 -3 -10 4 -17 1 -17 -5 0 -6 -3 -8 -7 -5 -3 4 -13 1 -21 -6 -13 -10 -15 -9
-8 3 4 8 1 7 -7 -3 -11 -14 -16 -15 -20 -5 -3 8 -6 5 -6 -7 -1 -17 -3 -17 -11
-5 -6 9 -10 11 -10 3 0 -7 -7 -10 -15 -7 -8 4 -15 1 -15 -6 0 -6 -4 -8 -10 -5
-5 3 -10 1 -10 -5 0 -6 -4 -8 -10 -5 -5 3 -10 2 -10 -3 0 -6 -8 -9 -17 -8 -11
0 -17 -5 -15 -13 3 -12 0 -12 -12 -2 -11 9 -16 9 -22 0 -5 -8 -3 -9 6 -4 9 6
11 4 6 -4 -5 -7 -14 -10 -22 -7 -8 3 -14 1 -14 -3 0 -5 -13 -14 -30 -20 -16
-5 -30 -15 -30 -21 0 -6 -4 -8 -10 -5 -5 3 -10 1 -10 -4 0 -6 -5 -11 -11 -11
-15 0 -39 -26 -31 -34 3 -4 -2 -4 -11 0 -10 3 -17 3 -16 -2 4 -21 -2 -28 -11
-14 -8 13 -10 13 -10 -2 0 -10 -12 -24 -27 -32 -16 -8 -25 -15 -21 -16 4 0 0
-9 -9 -19 -9 -11 -20 -18 -24 -15 -4 2 -10 -5 -14 -16 -4 -11 -10 -18 -15 -15
-4 3 -10 -4 -13 -15 -3 -11 -13 -20 -22 -20 -11 0 -15 -5 -11 -15 3 -9 0 -15
-9 -15 -8 0 -15 -7 -15 -15 0 -9 -7 -18 -15 -21 -8 -4 -15 -12 -15 -19 0 -8
-5 -17 -12 -21 -7 -5 -8 -3 -3 6 5 9 4 11 -3 6 -7 -4 -12 -14 -12 -23 0 -9 -6
-13 -15 -9 -13 5 -14 2 -4 -15 8 -15 8 -19 0 -15 -6 4 -11 2 -11 -4 0 -7 -6
-10 -13 -7 -8 3 -14 -1 -14 -9 0 -7 4 -11 9 -8 4 3 5 -2 2 -10 -3 -9 -10 -14
-15 -11 -9 6 -31 -29 -24 -39 3 -3 2 -4 -1 -1 -8 6 -38 -24 -40 -41 -1 -8 -10
-21 -19 -30 -9 -9 -14 -23 -11 -31 3 -8 1 -11 -5 -8 -15 10 -38 -14 -34 -36 3
-12 -5 -25 -21 -35 -13 -9 -24 -23 -24 -30 0 -8 -5 -14 -12 -14 -6 0 -8 -3 -5
-7 4 -3 -1 -12 -11 -20 -11 -10 -12 -12 -2 -8 8 4 4 -3 -10 -15 -14 -12 -19
-18 -11 -14 9 5 12 3 7 -4 -4 -7 -15 -12 -24 -12 -13 0 -14 -2 -4 -9 11 -6 10
-10 -3 -15 -10 -3 -15 -12 -11 -21 3 -8 1 -14 -5 -12 -6 1 -16 -7 -22 -18 -7
-11 -16 -23 -21 -26 -5 -4 -6 -11 -2 -17 3 -5 -1 -13 -10 -16 -8 -3 -13 -10
-10 -15 3 -5 -1 -12 -10 -15 -8 -3 -13 -10 -10 -15 3 -5 -1 -12 -10 -15 -8 -3
-12 -10 -9 -16 3 -5 1 -10 -4 -10 -6 0 -10 -3 -9 -8 2 -4 -7 -18 -20 -32 -12
-13 -20 -30 -18 -36 3 -7 -2 -15 -10 -18 -9 -3 -12 -11 -9 -16 4 -6 1 -9 -7
-8 -7 2 -12 -3 -10 -11 1 -7 -2 -19 -8 -25 -5 -7 -6 -16 -2 -20 4 -4 0 -6 -8
-4 -8 2 -14 -3 -12 -9 1 -7 -3 -13 -9 -13 -5 0 -7 -4 -4 -10 3 -5 1 -10 -5
-10 -6 0 -8 -5 -5 -10 3 -6 1 -10 -5 -10 -6 0 -8 -4 -5 -10 3 -5 1 -10 -5 -10
-6 0 -8 -5 -4 -12 5 -8 2 -9 -11 -4 -15 5 -16 4 -5 -9 7 -8 10 -16 6 -16 -3
-1 -10 -2 -15 -3 -5 0 -13 -5 -18 -10 -4 -5 -3 -6 3 -3 8 5 11 -2 10 -17 0
-13 -6 -22 -12 -19 -7 2 -15 -1 -20 -8 -5 -8 -3 -10 7 -4 11 7 12 6 2 -7 -7
-8 -10 -18 -6 -21 3 -4 1 -7 -6 -7 -7 0 -10 -4 -6 -9 3 -6 -3 -14 -12 -20 -14
-8 -15 -11 -3 -11 12 0 12 -3 -2 -11 -11 -6 -15 -16 -11 -26 4 -10 2 -14 -4
-10 -6 4 -14 0 -17 -9 -3 -8 -2 -12 4 -9 18 11 11 -4 -12 -26 -21 -20 -21 -21
-3 -15 19 6 19 5 3 -8 -10 -7 -18 -23 -18 -35 0 -12 -4 -20 -9 -16 -6 3 -8 -4
-6 -15 2 -11 0 -20 -5 -20 -5 0 -7 -9 -5 -19 2 -11 -3 -22 -12 -25 -12 -5 -13
-9 -3 -21 10 -12 9 -15 -6 -15 -15 0 -16 -2 -5 -9 8 -5 9 -11 3 -15 -12 -7
-11 -24 2 -45 7 -10 6 -12 -4 -6 -9 6 -12 4 -8 -7 4 -8 2 -21 -2 -28 -5 -8 -4
-23 2 -34 10 -20 10 -20 -7 -6 -17 14 -17 13 -8 -5 6 -11 10 -40 10 -63 0 -24
5 -47 12 -52 16 -10 16 -21 -1 -31 -10 -7 -9 -9 5 -9 10 0 15 -4 12 -10 -3 -5
-1 -10 5 -10 7 0 9 -7 6 -16 -3 -8 -2 -13 3 -10 4 3 17 -4 27 -17 19 -21 19
-21 -1 -7 -19 15 -19 15 0 -12 14 -19 26 -25 39 -22 11 4 16 2 12 -4 -7 -12
28 -35 38 -25 3 3 6 0 6 -7 0 -7 3 -10 7 -7 3 4 12 -1 19 -11 7 -9 14 -12 14
-5 0 13 40 5 40 -9 0 -5 7 -5 17 1 13 7 25 4 47 -12 16 -11 27 -16 23 -10 -4
6 0 13 8 17 8 3 17 0 21 -6 4 -7 9 -6 15 3 6 10 9 11 9 2 0 -7 5 -13 11 -13 5
0 7 6 3 13 -4 6 3 3 15 -8 12 -11 22 -15 21 -10 -4 20 1 30 9 17 6 -11 12 -10
26 5 17 17 18 17 12 0 -4 -11 -2 -17 9 -17 9 0 12 5 8 12 -6 10 -4 10 8 0 13
-10 17 -10 22 3 5 13 9 13 26 3 17 -11 22 -10 30 2 9 13 10 13 10 0 0 -9 3
-11 8 -4 4 5 25 11 47 13 21 1 46 7 54 14 11 9 15 9 18 0 3 -7 9 -13 14 -13 6
0 7 5 4 10 -4 6 6 10 24 10 16 0 32 6 34 13 4 9 6 8 6 -2 1 -11 4 -11 17 0 21
17 46 21 37 6 -3 -7 4 -3 17 8 13 11 20 14 16 8 -8 -15 10 -18 19 -3 3 6 20
10 36 10 17 0 28 4 24 9 -3 6 4 8 15 6 11 -2 20 2 20 8 0 7 4 6 10 -3 8 -12
10 -12 10 5 0 14 3 16 9 7 6 -10 10 -10 19 1 7 8 23 13 37 11 14 -1 25 3 25 9
0 7 5 5 10 -3 7 -12 10 -12 10 -1 0 8 6 11 16 7 8 -3 13 -2 10 3 -3 5 1 11 8
14 8 3 17 1 20 -6 3 -9 8 -8 15 3 6 8 11 11 11 6 0 -6 7 -1 16 10 8 10 12 12
8 4 -7 -13 -5 -13 9 -1 12 9 17 10 17 2 0 -7 10 -3 22 8 17 16 24 18 35 9 11
-9 13 -8 11 2 -2 7 3 15 11 18 8 3 11 0 7 -7 -4 -6 -3 -11 2 -11 5 0 14 10 21
23 8 15 10 16 6 3 -4 -15 -3 -17 8 -8 8 7 17 9 20 5 4 -3 7 -1 7 6 0 7 4 10 9
6 5 -3 13 -1 16 5 4 6 16 8 27 4 13 -4 18 -2 14 4 -7 12 29 26 43 18 5 -3 14
1 21 9 7 8 16 12 21 9 5 -3 9 1 9 8 0 9 3 9 10 -2 6 -10 10 -11 10 -2 0 6 3
11 8 11 21 -4 32 2 26 14 -5 8 -2 8 9 -2 13 -11 17 -11 17 -1 0 8 3 10 7 7 3
-4 13 -1 21 6 13 10 14 9 7 -2 -6 -11 -4 -13 11 -7 32 13 63 14 61 2 -1 -6 4
-10 11 -8 6 1 12 -3 12 -9 0 -5 5 -7 10 -4 6 3 10 2 10 -3 0 -6 10 -8 22 -4
16 4 19 2 13 -8 -6 -10 -4 -12 8 -7 9 3 18 0 21 -9 3 -8 12 -14 21 -14 8 0 15
-4 15 -10 0 -5 7 -10 16 -10 8 0 12 -5 9 -10 -3 -6 1 -10 11 -10 9 0 24 -8 33
-18 9 -11 26 -24 39 -31 12 -7 20 -16 17 -22 -4 -5 -3 -9 2 -8 20 3 34 -2 28
-11 -3 -5 1 -10 9 -10 9 0 16 -7 16 -16 0 -10 5 -14 16 -10 8 3 13 2 11 -2 -3
-4 5 -16 16 -27 11 -11 16 -13 12 -5 -5 8 6 0 24 -17 18 -18 30 -37 26 -43 -4
-6 1 -7 11 -3 12 4 15 3 10 -6 -4 -6 -4 -11 1 -10 19 3 34 -2 29 -10 -3 -4 6
-13 19 -19 14 -7 25 -16 25 -22 0 -5 8 -10 17 -10 9 0 14 -3 10 -6 -8 -8 16
-33 26 -27 4 2 7 -4 7 -13 0 -10 3 -14 6 -11 4 3 15 -5 26 -18 11 -14 26 -25
34 -25 8 0 14 -5 14 -11 0 -5 5 -7 10 -4 6 3 10 -2 10 -11 0 -10 3 -14 7 -11
3 4 11 0 17 -8 6 -7 18 -15 26 -17 22 -5 39 -22 32 -33 -3 -5 -2 -7 3 -3 4 4
15 2 23 -5 13 -10 14 -9 7 3 -4 8 3 3 18 -12 14 -16 32 -28 39 -28 9 0 9 3 -2
11 -12 9 -12 10 3 5 10 -3 21 -6 23 -6 3 0 2 -5 -2 -12 -5 -8 -2 -9 9 -5 9 3
19 2 23 -4 3 -6 12 -8 20 -5 9 3 14 -1 14 -12 0 -10 3 -13 8 -6 4 6 16 14 27
17 20 7 20 7 0 -8 -19 -15 -19 -15 5 -11 14 2 24 10 22 17 -1 9 3 7 11 -4 15
-18 33 -24 22 -7 -3 6 -2 10 4 10 5 0 12 -6 14 -12 3 -8 6 -6 6 4 1 11 6 15
15 12 8 -3 17 0 21 6 6 9 10 9 16 -1 7 -11 9 -11 9 2 0 18 26 33 41 24 5 -4 6
2 2 11 -5 14 -3 16 11 11 9 -4 15 -3 11 2 -3 5 -1 12 5 16 6 4 8 11 5 16 -4 5
2 6 11 2 13 -5 16 -3 11 10 -4 11 -1 15 12 12 10 -2 18 3 18 10 0 8 -5 11 -11
8 -6 -3 1 6 17 21 29 29 35 41 15 31 -7 -4 -4 1 7 10 11 9 19 23 17 31 -2 8 2
14 7 14 5 0 8 9 6 20 -2 12 5 26 18 35 13 9 16 15 7 15 -10 0 -8 5 6 16 10 8
13 12 5 8 -9 -4 -12 -2 -9 7 3 8 10 13 15 12 5 -1 10 4 10 12 0 8 -5 11 -11 8
-7 -5 -7 -2 0 8 6 8 10 22 9 32 -2 9 1 15 5 12 5 -3 11 -1 15 5 3 5 0 10 -7
10 -10 0 -10 2 -1 8 7 5 14 20 15 35 1 15 7 27 13 27 5 0 3 5 -5 10 -10 6 -11
10 -2 10 6 0 12 5 12 11 0 5 -6 7 -12 4 -7 -4 -5 0 5 8 20 16 24 52 5 42 -7
-4 -5 0 5 8 12 10 15 17 7 22 -8 5 -8 10 0 20 7 8 8 20 4 26 -5 9 -2 10 10 6
12 -5 15 -3 9 5 -11 19 -11 48 0 48 5 0 4 6 -2 14 -9 11 -9 16 -1 21 7 4 9 18
6 31 -5 17 -2 26 9 30 8 3 12 10 9 15 -3 5 -11 7 -17 3 -7 -3 -4 1 5 9 14 11
15 16 5 27 -9 9 -9 11 0 6 8 -5 11 8 10 44 -2 39 1 49 12 45 11 -4 12 -3 1 10
-7 8 -9 15 -5 15 4 0 2 7 -5 15 -11 13 -10 14 3 9 13 -5 15 0 11 21 -3 18 -1
24 6 20 7 -4 6 2 -2 14 -11 18 -11 23 2 31 10 6 11 10 3 10 -20 0 -15 20 5 20
11 0 13 3 6 8 -14 9 -13 74 1 84 6 5 5 8 -4 8 -11 0 -11 3 0 16 10 13 10 17
-2 25 -12 7 -12 9 1 9 12 0 13 2 1 9 -11 7 -11 9 0 14 12 5 12 6 0 6 -11 1
-11 4 0 17 10 13 10 17 -2 25 -12 7 -12 9 1 9 13 0 13 1 0 10 -13 9 -13 10 0
10 13 0 13 1 0 10 -13 9 -13 10 0 10 12 0 13 2 1 9 -7 5 -11 13 -7 19 3 6 2
13 -4 17 -7 4 -7 12 0 26 6 10 7 19 2 19 -5 0 -7 12 -4 26 4 20 2 25 -8 19
-10 -6 -12 -3 -8 13 4 12 2 22 -3 22 -4 0 -6 7 -3 15 4 8 0 23 -7 32 -12 14
-12 16 1 8 13 -8 13 -6 2 7 -7 9 -14 30 -14 47 -1 18 -5 28 -11 24 -6 -4 -8 2
-5 15 4 12 0 26 -8 33 -8 6 -12 22 -10 35 3 15 1 22 -5 18 -6 -3 -13 3 -16 15
-3 12 -10 21 -17 21 -6 0 -4 5 4 10 10 6 11 10 3 10 -7 0 -13 7 -13 15 0 8 -5
15 -11 15 -5 0 -7 5 -4 10 3 6 2 10 -4 10 -6 0 -7 7 -4 17 4 10 2 14 -4 10
-13 -8 -26 20 -16 35 3 6 2 8 -3 5 -6 -3 -16 8 -23 24 -7 16 -17 26 -23 23 -6
-4 -8 -2 -5 4 9 14 -3 43 -14 36 -5 -3 -9 4 -9 16 0 12 -4 18 -10 15 -5 -3
-10 1 -10 9 0 9 -4 16 -10 16 -5 0 -12 11 -16 25 -3 14 -13 25 -21 25 -8 0
-12 4 -9 9 3 5 -1 11 -9 15 -8 3 -15 13 -15 22 0 10 -3 15 -6 11 -10 -9 -32
16 -27 31 4 8 0 10 -11 6 -15 -6 -21 5 -17 29 1 5 -3 6 -8 3 -5 -3 -19 7 -32
23 -13 16 -27 27 -31 25 -4 -3 -8 2 -8 11 0 9 -4 13 -10 10 -5 -3 -10 2 -10
11 0 10 -3 14 -7 11 -3 -4 -15 5 -26 20 -12 18 -17 21 -13 8 6 -16 3 -16 -17
5 -13 14 -22 28 -20 32 2 4 -2 10 -8 14 -8 4 -9 3 -5 -4 4 -7 3 -12 -1 -12 -5
0 -14 9 -21 20 -7 11 -19 20 -27 20 -8 0 -15 5 -15 12 0 6 -3 9 -6 5 -3 -3
-16 5 -29 18 -12 14 -25 21 -29 17 -4 -4 -12 1 -17 11 -6 9 -19 17 -30 17 -11
0 -24 10 -29 23 -5 12 -9 17 -9 12 -1 -6 -10 -11 -20 -11 -11 0 -18 3 -16 6 5
8 -18 25 -39 28 -11 2 -29 9 -40 17 -12 7 -29 11 -39 10 -9 -2 -15 0 -12 5 3
4 -2 11 -11 14 -10 4 -13 2 -8 -7 4 -6 -3 -3 -16 8 -15 13 -21 15 -16 5 5 -10
3 -10 -6 2 -11 12 -18 14 -32 6 -14 -8 -17 -7 -12 1 7 10 -7 16 -28 12 -5 -1
-13 4 -17 11 -6 9 -9 9 -9 1 0 -6 -9 -9 -20 -6 -11 3 -17 10 -13 17 4 6 -2 4
-12 -4 -11 -9 -16 -10 -11 -2 4 6 2 12 -3 12 -6 0 -11 -6 -11 -12 0 -10 -3 -9
-9 1 -5 7 -14 10 -20 7 -6 -4 -11 -1 -11 6 0 9 -3 9 -10 -2 -5 -8 -10 -10 -10
-4 0 6 -17 9 -40 8 -25 -1 -40 3 -40 10 0 6 -5 4 -10 -4 -5 -8 -10 -11 -10 -6
0 5 -6 3 -14 -3 -11 -9 -16 -9 -22 0 -4 8 -3 9 4 5 7 -4 12 -2 12 3 0 14 -17
14 -26 0 -5 -8 -9 -8 -14 1 -5 8 -10 9 -14 2z m585 -2569 c13 -16 12 -17 -3
-4 -10 7 -18 15 -18 17 0 8 8 3 21 -13z"/>
<path d="M3590 1041 c0 -6 4 -13 10 -16 6 -3 7 1 4 9 -7 18 -14 21 -14 7z"/>
</g>
</svg>
